# Blender v2.90.1 OBJ File: 'clock.blend'
# www.blender.org
mtllib clock.mtl
o 柱体
v -0.100000 -0.082528 -0.996589
v 0.100000 -0.082528 -0.996589
v -0.100000 -0.275367 -0.961339
v 0.100000 -0.275367 -0.961339
v -0.100000 -0.457624 -0.889146
v 0.100000 -0.457624 -0.889146
v -0.100000 -0.622295 -0.782783
v 0.100000 -0.622295 -0.782783
v -0.100000 -0.763051 -0.646338
v 0.100000 -0.763051 -0.646338
v -0.100000 -0.874484 -0.485055
v 0.100000 -0.874484 -0.485055
v -0.100000 -0.952310 -0.305132
v 0.100000 -0.952310 -0.305132
v -0.100000 -0.993540 -0.113482
v 0.100000 -0.993540 -0.113482
v -0.100000 -0.996589 0.082528
v 0.100000 -0.996589 0.082528
v -0.100000 -0.961339 0.275367
v 0.100000 -0.961339 0.275367
v -0.100000 -0.889146 0.457624
v 0.100000 -0.889146 0.457624
v -0.100000 -0.782783 0.622295
v 0.100000 -0.782783 0.622295
v -0.100000 -0.646338 0.763051
v 0.100000 -0.646338 0.763051
v -0.100000 -0.485055 0.874484
v 0.100000 -0.485055 0.874484
v -0.100000 -0.305132 0.952310
v 0.100000 -0.305132 0.952310
v -0.100000 -0.113482 0.993540
v 0.100000 -0.113482 0.993540
v -0.100000 0.082529 0.996589
v 0.100000 0.082529 0.996589
v -0.100000 0.275368 0.961339
v 0.100000 0.275368 0.961339
v -0.100000 0.457625 0.889145
v 0.100000 0.457625 0.889145
v -0.100000 0.622295 0.782783
v 0.100000 0.622295 0.782783
v -0.100000 0.763051 0.646338
v 0.100000 0.763051 0.646338
v -0.100000 0.874484 0.485055
v 0.100000 0.874484 0.485055
v -0.100000 0.952310 0.305131
v 0.100000 0.952310 0.305131
v -0.100000 0.993540 0.113481
v 0.100000 0.993540 0.113481
v -0.100000 0.996589 -0.082529
v 0.100000 0.996589 -0.082529
v -0.100000 0.961339 -0.275368
v 0.100000 0.961339 -0.275368
v -0.100000 0.889145 -0.457625
v 0.100000 0.889145 -0.457625
v -0.100000 0.782782 -0.622296
v 0.100000 0.782782 -0.622296
v -0.100000 0.646337 -0.763052
v 0.100000 0.646337 -0.763052
v -0.100000 0.485054 -0.874484
v 0.100000 0.485054 -0.874484
v -0.100000 0.305130 -0.952311
v 0.100000 0.305130 -0.952311
v -0.100000 0.113481 -0.993540
v 0.100000 0.113481 -0.993540
vt 0.043182 0.291527
vt 0.009591 0.383260
vt -0.005458 0.479784
vt -0.001387 0.577390
vt 0.021647 0.672326
vt 0.062760 0.760943
vt 0.120372 0.839838
vt 0.192268 0.905976
vt 0.275685 0.956818
vt 0.367419 0.990409
vt 0.463943 1.005458
vt 0.561549 1.001387
vt 0.656484 0.978353
vt 0.745102 0.937240
vt 0.823997 0.879628
vt 0.890135 0.807732
vt 0.940977 0.724314
vt 0.974568 0.632581
vt 0.989617 0.536057
vt 0.985546 0.438451
vt 0.962511 0.343515
vt 0.921398 0.254898
vt 0.863787 0.176003
vt 0.791891 0.109864
vt 0.708473 0.059023
vt 0.616739 0.025432
vt 0.520215 0.010383
vt 0.422610 0.014454
vt 0.327674 0.037489
vt 0.239056 0.078602
vt 0.160162 0.136213
vt 0.094023 0.208110
vt 4.721056 -0.412881
vt 4.721056 4.969126
vt 4.384680 4.969126
vt 4.384680 -0.412881
vt 4.048305 4.969126
vt 4.048305 -0.412881
vt 3.711929 4.969126
vt 3.711929 -0.412881
vt 3.375554 4.969126
vt 3.375554 -0.412881
vt 3.039178 4.969126
vt 3.039178 -0.412881
vt 2.702803 4.969126
vt 2.702803 -0.412881
vt 2.366427 4.969126
vt 2.366427 -0.412881
vt 2.030052 4.969126
vt 2.030052 -0.412881
vt 1.693676 4.969126
vt 1.693676 -0.412881
vt 1.357301 4.969126
vt 1.357301 -0.412881
vt 1.020926 4.969126
vt 1.020926 -0.412881
vt 0.684550 4.969126
vt 0.684550 -0.412881
vt 0.348175 4.969126
vt 0.348175 -0.412881
vt 0.011799 4.969126
vt 0.011799 -0.412881
vt -0.324576 4.969126
vt -0.324576 -0.412881
vt 0.531250 0.500000
vt 0.531250 1.000000
vt 0.500000 1.000000
vt 0.500000 0.500000
vt 3.901828 -0.622117
vt 3.901828 5.306098
vt 3.531315 5.306098
vt 3.531315 -0.622117
vt 3.160801 5.306098
vt 3.160801 -0.622117
vt 2.790288 5.306098
vt 2.790288 -0.622117
vt 2.419775 5.306098
vt 2.419775 -0.622117
vt 2.049261 5.306098
vt 2.049261 -0.622117
vt 1.678748 5.306098
vt 1.678748 -0.622117
vt 1.308234 5.306098
vt 1.308234 -0.622117
vt 0.937721 5.306098
vt 0.937721 -0.622117
vt 0.567207 5.306098
vt 0.567207 -0.622117
vt 0.196694 5.306098
vt 0.196694 -0.622117
vt -0.173820 5.306098
vt -0.173820 -0.622117
vt -0.544333 5.306098
vt -0.544333 -0.622117
vt 2.076967 -0.562500
vt 2.076967 8.307869
vt 1.522569 8.307869
vt 1.522569 -0.562500
vt 0.968171 8.307869
vt 0.968171 -0.562500
vt 0.296822 0.485388
vt 0.250000 0.490000
vt 0.203179 0.485389
vt 0.158156 0.471731
vt 0.116663 0.449553
vt 0.080295 0.419706
vt 0.050447 0.383337
vt 0.028269 0.341844
vt 0.014612 0.296822
vt 0.010000 0.250000
vt 0.014611 0.203179
vt 0.028269 0.158156
vt 0.050447 0.116663
vt 0.080294 0.080294
vt 0.116663 0.050447
vt 0.158156 0.028269
vt 0.203178 0.014612
vt 0.250000 0.010000
vt 0.296822 0.014612
vt 0.341844 0.028269
vt 0.383337 0.050447
vt 0.419706 0.080294
vt 0.449553 0.116663
vt 0.471731 0.158156
vt 0.485388 0.203178
vt 0.490000 0.250000
vt 0.485388 0.296822
vt 0.471731 0.341844
vt 0.449553 0.383337
vt 0.419706 0.419706
vt 0.383337 0.449553
vt 0.341844 0.471731
vt 0.413773 8.307869
vt 0.413773 -0.562500
vt -0.140625 8.307869
vt -0.140625 -0.562500
vn -1.0000 0.0000 -0.0000
vn 0.0000 -0.1798 -0.9837
vn 0.0000 -0.3683 -0.9297
vn 0.0000 -0.5426 -0.8400
vn 0.0000 -0.6960 -0.7180
vn 0.0000 -0.8227 -0.5684
vn 0.0000 -0.9178 -0.3970
vn 0.0000 -0.9776 -0.2103
vn 0.0000 -0.9999 -0.0156
vn 0.0000 -0.9837 0.1798
vn 0.0000 -0.9297 0.3683
vn 0.0000 -0.8400 0.5426
vn 0.0000 -0.7180 0.6960
vn 0.0000 -0.5684 0.8227
vn 0.0000 -0.3970 0.9178
vn -0.0000 -0.2103 0.9776
vn 0.0000 -0.0156 0.9999
vn 0.0000 0.1798 0.9837
vn 0.0000 0.3683 0.9297
vn 0.0000 0.5426 0.8400
vn 0.0000 0.6960 0.7180
vn 0.0000 0.8227 0.5684
vn 0.0000 0.9178 0.3970
vn 0.0000 0.9776 0.2103
vn 0.0000 0.9999 0.0156
vn 0.0000 0.9837 -0.1798
vn 0.0000 0.9297 -0.3683
vn 0.0000 0.8400 -0.5426
vn 0.0000 0.7180 -0.6960
vn 0.0000 0.5684 -0.8227
vn 0.0000 0.3970 -0.9178
vn 1.0000 -0.0000 0.0000
vn -0.0000 0.2103 -0.9776
vn -0.0000 0.0156 -0.9999
usemtl face
s off
f 1/1/1 3/2/1 5/3/1 7/4/1 9/5/1 11/6/1 13/7/1 15/8/1 17/9/1 19/10/1 21/11/1 23/12/1 25/13/1 27/14/1 29/15/1 31/16/1 33/17/1 35/18/1 37/19/1 39/20/1 41/21/1 43/22/1 45/23/1 47/24/1 49/25/1 51/26/1 53/27/1 55/28/1 57/29/1 59/30/1 61/31/1 63/32/1
usemtl back
f 1/33/2 2/34/2 4/35/2 3/36/2
f 3/36/3 4/35/3 6/37/3 5/38/3
f 5/38/4 6/37/4 8/39/4 7/40/4
f 7/40/5 8/39/5 10/41/5 9/42/5
f 9/42/6 10/41/6 12/43/6 11/44/6
f 11/44/7 12/43/7 14/45/7 13/46/7
f 13/46/8 14/45/8 16/47/8 15/48/8
f 15/48/9 16/47/9 18/49/9 17/50/9
f 17/50/10 18/49/10 20/51/10 19/52/10
f 19/52/11 20/51/11 22/53/11 21/54/11
f 21/54/12 22/53/12 24/55/12 23/56/12
f 23/56/13 24/55/13 26/57/13 25/58/13
f 25/58/14 26/57/14 28/59/14 27/60/14
f 27/60/15 28/59/15 30/61/15 29/62/15
f 29/62/16 30/61/16 32/63/16 31/64/16
f 31/65/17 32/66/17 34/67/17 33/68/17
f 33/69/18 34/70/18 36/71/18 35/72/18
f 35/72/19 36/71/19 38/73/19 37/74/19
f 37/74/20 38/73/20 40/75/20 39/76/20
f 39/76/21 40/75/21 42/77/21 41/78/21
f 41/78/22 42/77/22 44/79/22 43/80/22
f 43/80/23 44/79/23 46/81/23 45/82/23
f 45/82/24 46/81/24 48/83/24 47/84/24
f 47/84/25 48/83/25 50/85/25 49/86/25
f 49/86/26 50/85/26 52/87/26 51/88/26
f 51/88/27 52/87/27 54/89/27 53/90/27
f 53/90/28 54/89/28 56/91/28 55/92/28
f 55/92/29 56/91/29 58/93/29 57/94/29
f 57/95/30 58/96/30 60/97/30 59/98/30
f 59/98/31 60/97/31 62/99/31 61/100/31
f 4/101/32 2/102/32 64/103/32 62/104/32 60/105/32 58/106/32 56/107/32 54/108/32 52/109/32 50/110/32 48/111/32 46/112/32 44/113/32 42/114/32 40/115/32 38/116/32 36/117/32 34/118/32 32/119/32 30/120/32 28/121/32 26/122/32 24/123/32 22/124/32 20/125/32 18/126/32 16/127/32 14/128/32 12/129/32 10/130/32 8/131/32 6/132/32
f 61/100/33 62/99/33 64/133/33 63/134/33
f 63/134/34 64/133/34 2/135/34 1/136/34
o 立方体
v -0.110000 0.000000 0.025000
v -0.110000 0.700000 0.025000
v -0.110000 0.000000 -0.025000
v -0.110000 0.700000 -0.025000
v -0.090000 0.000000 0.025000
v -0.090000 0.700000 0.025000
v -0.090000 0.000000 -0.025000
v -0.090000 0.700000 -0.025000
vt 0.375000 0.000000
vt 0.625000 0.000000
vt 0.625000 0.250000
vt 0.375000 0.250000
vt 0.625000 0.500000
vt 0.375000 0.500000
vt 0.625000 0.750000
vt 0.375000 0.750000
vt 0.625000 1.000000
vt 0.375000 1.000000
vt 0.125000 0.500000
vt 0.125000 0.750000
vt 0.875000 0.500000
vt 0.875000 0.750000
vn -1.0000 0.0000 0.0000
vn 0.0000 0.0000 -1.0000
vn 1.0000 0.0000 0.0000
vn 0.0000 0.0000 1.0000
vn 0.0000 -1.0000 0.0000
vn 0.0000 1.0000 0.0000
usemtl back
s off
f 65/137/35 66/138/35 68/139/35 67/140/35
f 67/140/36 68/139/36 72/141/36 71/142/36
f 71/142/37 72/141/37 70/143/37 69/144/37
f 69/144/38 70/143/38 66/145/38 65/146/38
f 67/147/39 71/142/39 69/144/39 65/148/39
f 72/141/40 68/149/40 66/150/40 70/143/40
o 立方体.001
v -0.136798 -0.022538 -0.036786
v -0.136798 -0.307937 0.490989
v -0.136798 0.030240 -0.008246
v -0.136798 -0.255159 0.519529
v -0.116797 -0.022538 -0.036786
v -0.116797 -0.307937 0.490989
v -0.116797 0.030240 -0.008246
v -0.116797 -0.255159 0.519529
vt 0.375000 0.000000
vt 0.625000 0.000000
vt 0.625000 0.250000
vt 0.375000 0.250000
vt 0.625000 0.500000
vt 0.375000 0.500000
vt 0.625000 0.750000
vt 0.375000 0.750000
vt 0.625000 1.000000
vt 0.375000 1.000000
vt 0.125000 0.500000
vt 0.125000 0.750000
vt 0.875000 0.500000
vt 0.875000 0.750000
vn -1.0000 0.0000 0.0000
vn 0.0000 0.8796 0.4757
vn 1.0000 0.0000 0.0000
vn 0.0000 -0.8796 -0.4757
vn 0.0000 0.4757 -0.8796
vn 0.0000 -0.4757 0.8796
usemtl back.001
s off
f 73/151/41 74/152/41 76/153/41 75/154/41
f 75/154/42 76/153/42 80/155/42 79/156/42
f 79/156/43 80/155/43 78/157/43 77/158/43
f 77/158/44 78/157/44 74/159/44 73/160/44
f 75/161/45 79/156/45 77/158/45 73/162/45
f 80/155/46 76/163/46 74/164/46 78/157/46
